<?xml version="1.0" standalone="no"?>
<!DOCTYPE svg PUBLIC "-//W3C//DTD SVG 20010904//EN"
 "http://www.w3.org/TR/2001/REC-SVG-20010904/DTD/svg10.dtd">
<svg version="1.0" xmlns="http://www.w3.org/2000/svg"
 width="120.000000pt" height="120.000000pt" viewBox="0 0 120.000000 120.000000"
 preserveAspectRatio="xMidYMid meet">
<metadata>
Created by potrace 1.11, written by Peter Selinger 2001-2013
</metadata>
<g transform="translate(0.000000,120.000000) scale(0.100000,-0.100000)"
fill="#000000" stroke="none">
<path d="M441 1158 c-19 -13 -34 -32 -38 -49 -5 -27 -8 -28 -59 -28 -128 2
-197 -87 -197 -252 0 -36 8 -89 17 -117 17 -51 17 -53 -5 -88 -14 -23 -18 -38
-12 -43 7 -3 -6 -35 -33 -81 -23 -41 -48 -90 -55 -109 -10 -29 -9 -36 9 -54
32 -32 63 -11 109 72 21 39 40 71 43 71 3 0 7 -14 8 -31 2 -22 -6 -40 -28 -65
-37 -43 -37 -52 -3 -80 26 -20 27 -26 29 -119 1 -104 8 -119 52 -112 12 3 25
0 28 -5 3 -5 15 -2 25 8 21 19 26 6 6 -16 -6 -8 0 -4 16 9 15 14 27 25 27 26
0 7 -42 -4 -57 -16 -16 -12 -17 -12 -6 1 7 9 13 54 15 100 3 84 3 85 30 88
l27 3 -1 -88 c0 -55 -6 -96 -14 -110 -12 -19 -12 -22 1 -17 8 4 15 10 15 16 0
5 5 6 10 3 6 -4 8 -12 5 -18 -3 -7 0 -4 7 5 11 15 13 15 26 0 7 -9 11 -11 7
-5 -4 8 0 13 9 13 9 0 16 -4 16 -9 0 -5 8 -8 18 -6 9 1 25 -2 34 -7 14 -6 16
-5 12 7 -3 8 -11 12 -17 8 -6 -4 -7 -1 -2 6 5 9 11 9 17 3 6 -6 17 -8 26 -5 9
4 13 2 9 -3 -3 -6 8 -10 29 -9 19 0 39 7 44 15 6 8 10 10 10 4 0 -12 161 -11
181 2 8 4 9 3 5 -4 -4 -7 -2 -10 7 -6 14 5 17 28 20 139 2 53 4 60 22 60 18 0
20 -7 21 -88 1 -95 6 -107 55 -107 26 0 65 31 53 43 -3 3 -2 12 2 19 5 7 9 49
9 93 1 44 4 87 8 95 3 8 8 35 9 59 l3 45 32 -52 c24 -39 38 -52 56 -52 52 0
60 38 22 106 -13 24 -20 44 -14 44 6 0 -3 24 -19 53 -17 28 -40 70 -52 92 -25
45 -37 59 -50 61 -6 1 -12 2 -15 3 -3 0 4 11 15 24 33 34 70 112 76 161 10 69
-18 137 -74 184 -68 57 -89 65 -160 65 -54 -1 -65 2 -78 22 -17 26 -55 45 -80
40 -11 -2 -25 -4 -32 -4 -8 -1 -27 -15 -44 -31 -30 -31 -31 -31 -45 -11 -32
46 -95 59 -142 29z m212 -355 c-6 -16 -5 -16 10 -4 15 12 17 11 17 -3 0 -24
39 -96 55 -102 14 -6 4 -24 -86 -163 -18 -28 -27 -52 -24 -65 3 -12 -7 2 -22
29 -14 28 -28 61 -29 75 -2 14 -5 37 -8 51 -7 30 19 162 32 167 5 1 18 9 28
17 26 19 35 19 27 -2z m-71 -470 c13 -11 39 -16 69 -14 9 0 30 27 47 59 l31
57 2 -35 c1 -19 1 -41 0 -48 -1 -8 2 -19 8 -26 5 -6 9 -61 9 -123 -1 -87 -5
-110 -15 -106 -7 3 -11 8 -9 12 3 4 -14 6 -36 5 -22 -1 -44 -8 -49 -16 -6 -9
-9 -6 -10 12 0 22 -1 23 -8 6 -5 -12 -10 -16 -14 -9 -9 15 -49 4 -40 -11 3 -6
0 -5 -8 2 -12 11 -12 14 1 22 8 5 10 10 4 10 -6 0 -19 -10 -28 -23 -14 -20
-15 -20 -10 -2 5 19 5 19 -9 3 -8 -10 -16 -18 -18 -18 -2 0 -5 44 -6 98 -1 97
-1 97 30 123 l32 26 -38 42 c-29 32 -37 48 -33 69 2 15 5 32 6 37 0 6 18 -24
40 -66 21 -41 44 -80 52 -86z m118 -238 c19 -22 8 -25 -12 -3 -10 10 -14 18
-9 18 5 0 14 -7 21 -15z"/>
<path d="M873 81 c0 -11 5 -18 9 -15 4 3 5 11 1 19 -7 21 -12 19 -10 -4z"/>
</g>
</svg>
