<svg xmlns="http://www.w3.org/2000/svg" width="248.555" height="93.815" viewBox="0 0 248.555 93.815"><path d="M28.627 22.202c.84 0 1.41.132 1.71.396.3.265.474.576.522.936 0 .048.04.427.125 1.134.083.708.186 1.62.306 2.736s.26 2.376.415 3.78c.156 1.404.318 2.838.486 4.302.168 1.464.33 2.898.487 4.302.156 1.404.293 2.658.414 3.762l.29 2.665c.07.672.107 1.02.107 1.043.023.05-.042.115-.198.2-.157.082-.45.124-.883.124s-.714-.035-.846-.107-.21-.132-.233-.18c0-.024-.03-.29-.09-.793l-.198-1.656-.2-1.656c-.06-.504-.09-.792-.09-.864-.023-.167-.107-.252-.25-.252h-3.6c-.193 0-.302.072-.325.216 0 .048-.036.324-.108.828-.072.504-.144 1.057-.216 1.656-.07.6-.138 1.158-.197 1.674-.06.517-.09.786-.09.81-.024.072-.103.145-.234.217s-.44.107-.92.107-.78-.03-.9-.09-.167-.126-.143-.197c0-.024.036-.373.108-1.045.072-.67.174-1.56.306-2.664.133-1.104.277-2.358.433-3.762.156-1.404.318-2.844.486-4.32s.335-2.916.503-4.32c.168-1.404.312-2.664.432-3.78.12-1.116.222-2.016.306-2.7.084-.684.127-1.05.127-1.098.048-.408.216-.744.504-1.008.29-.264.84-.396 1.657-.396zm1.584 17.965c.192 0 .265-.12.217-.36 0-.023-.036-.317-.108-.882-.073-.563-.163-1.29-.27-2.178-.11-.888-.23-1.872-.36-2.952-.133-1.08-.266-2.136-.397-3.168-.132-1.032-.247-1.98-.342-2.844-.095-.864-.167-1.524-.215-1.98-.024-.192-.048-.275-.072-.252-.024.025-.048.11-.072.253-.047.456-.125 1.116-.233 1.98-.108.864-.222 1.812-.342 2.844-.12 1.032-.252 2.088-.396 3.168s-.27 2.064-.38 2.952c-.107.888-.197 1.62-.27 2.196-.07.576-.107.876-.107.9 0 .216.072.324.216.324h3.13zM46.086 47.457c-.168.083-.444.125-.828.125s-.654-.048-.81-.144-.258-.192-.306-.288c0-.023-.108-.414-.324-1.17-.216-.756-.486-1.692-.81-2.808-.324-1.116-.666-2.322-1.026-3.618-.36-1.296-.702-2.496-1.026-3.6-.324-1.104-.594-2.027-.81-2.772-.216-.744-.324-1.127-.324-1.152-.024-.072-.048-.114-.072-.126-.024-.012-.036.03-.036.126v15.156c0 .07-.096.156-.288.252-.192.096-.468.144-.828.144-.336 0-.606-.042-.81-.125-.204-.084-.306-.187-.306-.307V22.634c0-.192.09-.312.27-.36.18-.048.462-.072.846-.072.72 0 1.127.096 1.224.288.744 2.76 1.428 5.244 2.052 7.452l.774 2.754s.474 1.705.666 2.412c.192.708.354 1.284.486 1.728.132.444.198.678.198.702.023.072.048.132.072.18.024.048.036-.023.036-.216v-14.94c0-.24.372-.36 1.116-.36.768 0 1.152.132 1.152.396l-.036 24.588c0 .097-.084.187-.252.27zM52.566 47.582c-.77 0-1.152-.107-1.152-.324v-24.66c0-.095.084-.186.252-.27.168-.083.456-.126.864-.126s.702.042.882.126c.18.084.27.175.27.27v24.588c0 .264-.372.396-1.116.396zM63.402 35.162c0 .05.066.252.198.612s.294.828.486 1.404c.19.576.42 1.224.684 1.944.264.72.528 1.452.792 2.196.624 1.752 1.332 3.732 2.124 5.94.024.048-.042.114-.198.198-.156.083-.45.125-.882.125-.48 0-.798-.022-.954-.07-.156-.05-.247-.097-.27-.145l-3.276-9.108c-.024-.096-.06-.15-.108-.162-.048-.012-.084.03-.108.126l-.9 2.485c-.024.048-.036.114-.036.198v6.211c0 .12-.144.21-.432.27-.288.06-.517.09-.684.09-.192 0-.427-.017-.702-.054-.276-.036-.414-.114-.414-.234V22.562c0-.072.096-.15.288-.234.192-.083.456-.126.792-.126.36 0 .642.042.846.126.204.084.306.175.306.27v11.844c0 .048.012.084.036.108.023.024.06-.012.108-.108 0-.023.066-.21.198-.558.13-.348.3-.804.504-1.368.204-.563.432-1.2.684-1.908l.774-2.178 2.088-5.904c.023-.072.114-.144.27-.216.156-.072.45-.108.882-.108.408 0 .702.042.882.126.18.084.257.162.234.234-.456 1.296-.924 2.616-1.404 3.96-.41 1.152-.858 2.436-1.35 3.852-.492 1.416-.98 2.808-1.458 4.176-.072.24-.072.445 0 .612zM77.55 22.382c1.03 0 1.812.234 2.34.702.527.468.792 1.23.792 2.286v18.936c0 1.08-.265 1.867-.792 2.358-.528.492-1.31.738-2.34.738h-2.34c-1.032 0-1.818-.234-2.358-.702s-.81-1.23-.81-2.286V25.48c0-1.08.27-1.867.81-2.36.54-.49 1.326-.737 2.358-.737h2.34zm.9 2.988c0-.335-.09-.612-.27-.828-.18-.216-.474-.324-.882-.324h-1.872c-.384 0-.672.132-.864.396-.192.265-.288.588-.288.972v18.828c0 .336.096.612.288.828.192.216.48.324.864.324h1.872c.384 0 .672-.132.864-.396.192-.264.288-.588.288-.972V25.37z"/><g><path d="M53.05 56.12c-1.967 3.457-2.95 5.713-2.95 6.77 0 .415.15.624.455.624.816 0 1.912-1.385 3.288-4.152.096-.225.192-.312.288-.264.097.047.145.11.145.19s-.032.177-.096.29c-.85 1.71-1.565 2.89-2.15 3.54-.583.647-1.167.972-1.75.972-.585 0-1.03-.225-1.333-.673-.16-.208-.24-.49-.24-.853 0-.36.08-.795.24-1.307.16-.513.6-1.345 1.32-2.496.176-.288.264-.516.264-.684s-.135-.252-.407-.252c-.272 0-.792.36-1.56 1.08-1.152 1.056-2.264 2.64-3.336 4.752-.096.16-.204.26-.324.3-.12.04-.356.068-.708.084s-.583.057-.696.12c.255-.512.76-1.56 1.51-3.144 1.345-2.8 2.225-4.4 2.64-4.8.193-.192.457-.288.793-.288.064 0 .228.023.492.07s.46.058.588.025c-.592.32-1.56 1.824-2.904 4.512.75-.928 1.435-1.668 2.05-2.22s1.357-1.063 2.22-1.536c.865-.473 1.497-.71 1.897-.71.096.003.184.02.264.05z"/><path d="M60.155 59.445c-.528 1.016-.844 1.775-.948 2.28-.104.503-.156.91-.156 1.224s.12.467.36.467c.305 0 .68-.28 1.13-.84.655-.815 1.303-1.88 1.943-3.192.063-.144.136-.224.216-.24.127-.047.19 0 .19.145 0 .08-.023.176-.07.288-1.473 2.976-2.713 4.464-3.72 4.464-.465 0-.84-.224-1.13-.672-.143-.24-.215-.56-.215-.96s.08-.888.24-1.464c-1.28 2.064-2.384 3.096-3.312 3.096-.256 0-.488-.08-.696-.24-.48-.336-.72-.912-.72-1.728 0-1.567.68-3.16 2.04-4.776.768-.896 1.712-1.48 2.832-1.752.303-.08.59-.12.863-.12.736 0 1.36.257 1.872.77.16.175.208.343.144.503-.065.16-.202.224-.41.19-.175-.576-.56-.863-1.15-.863-.69 0-1.537.544-2.545 1.632-.576.64-1.112 1.39-1.608 2.255-.624 1.04-.936 1.872-.936 2.496s.2.938.6.938c.96 0 2.217-1.473 3.77-4.416.303-.592.56-.996.767-1.213.208-.217.472-.325.792-.325.063 0 .227.024.49.072.265.05.46.057.59.024-.29.287-.697.94-1.225 1.955z"/><path d="M61.066 71.577c-1.504 0-2.256-.616-2.256-1.85 0-1.022.696-1.942 2.088-2.76 1.184-.687 2.696-1.335 4.536-1.942.848-.272 1.464-.488 1.848-.648.416-1.215.624-2.544.624-3.984 0-.287-.016-.504-.048-.647-.448.912-1.064 1.85-1.848 2.808-.928 1.152-1.848 1.6-2.76 1.344-.832-.352-1.248-1.04-1.248-2.063 0-1.376.688-2.888 2.064-4.536.752-.897 1.632-1.465 2.64-1.704.272-.08.543-.12.816-.12.72 0 1.424.24 2.112.72.256.208.384.384.384.527 0 .145-.048.285-.144.42-.096.137-.196.152-.3.05-.104-.105-.172-.205-.204-.302-.208-.59-.544-.887-1.008-.887-.848 0-1.8.593-2.856 1.776-.592.67-1.104 1.39-1.536 2.16-.528.958-.792 1.698-.792 2.22s.16.867.48 1.043c.11.048.224.072.336.072.368 0 .828-.252 1.38-.756.552-.505 1.064-1.146 1.536-1.92.472-.777.77-1.382.9-1.813.128-.432.284-.704.468-.816.184-.11.388-.175.612-.19.224-.016.375-.057.456-.12.128.72.192 1.563.192 2.532 0 .968-.168 2.068-.504 3.3.735-.528 1.26-1 1.572-1.416s.56-.792.744-1.128c.184-.336.348-.668.492-.996.144-.328.24-.54.288-.637.048-.096.128-.155.24-.18.112-.023.168.028.168.156 0 .08-.024.177-.072.29-.704 1.455-1.292 2.507-1.764 3.155-.472.647-1.116 1.163-1.932 1.548-.384 1.088-.94 2.168-1.668 3.24-.73 1.07-1.644 2.016-2.748 2.832-1.104.814-2.2 1.222-3.288 1.222zm-1.752-1.39c0 .606.392.91 1.176.91.464 0 .987-.136 1.572-.407.584-.272 1.068-.553 1.452-.84.656-.528 1.375-1.312 2.16-2.353.592-.832 1.048-1.64 1.368-2.424l-.84.288c-2.496.864-4.256 1.633-5.28 2.305-.752.496-1.248 1.128-1.488 1.896-.08.24-.12.45-.12.626z"/><path d="M69.06 71.577c-.705 0-1.25-.147-1.633-.444-.384-.296-.576-.652-.576-1.068s.12-.887.36-1.416c.417-.816 1.17-1.473 2.257-1.968.816-.385 1.896-.74 3.24-1.068 1.344-.328 2.208-.55 2.592-.66.575-1.008 1.263-2.81 2.063-5.4-.928 1.633-1.704 2.776-2.328 3.433-.624.656-1.256.983-1.896.983-.865 0-1.37-.36-1.513-1.08-.064-.11-.08-.28-.048-.504.03-.224.05-.384.06-.48.007-.096.06-.25.155-.467.096-.218.16-.374.192-.47.176-.367.328-.655.456-.863-.256 0-.328-.13-.216-.385l.432-.84c.543-1.04.99-1.92 1.343-2.64.16-.336.472-.504.936-.504h1.463c-.032.032-.112.096-.24.192-.288.19-.504.416-.648.672-.576.992-1.296 2.408-2.16 4.248-.352.752-.528 1.304-.528 1.656 0 .352.06.6.18.743s.284.215.492.215c.303 0 .727-.32 1.27-.96 1.137-1.327 2.393-3.415 3.77-6.264.175-.335.487-.503.935-.503h1.296c-.416.288-.743.65-.983 1.092-.24.44-.5 1.035-.78 1.787s-.632 1.752-1.056 3c-.423 1.248-.748 2.184-.97 2.81 1.503-.45 2.655-1.24 3.455-2.378.352-.497.855-1.376 1.512-2.64.112-.225.212-.313.3-.266.087.05.132.113.132.193s-.133.387-.397.924c-.264.536-.532 1.032-.804 1.488s-.625.925-1.057 1.404c-.432.48-.912.86-1.44 1.14-.528.28-1.232.58-2.112.9-1.23 2.24-2.47 3.888-3.72 4.943-1.168.963-2.432 1.442-3.79 1.442zM67.666 69.2c-.176.353-.264.677-.264.974 0 .295.112.523.336.684.224.16.503.24.84.24.927 0 1.92-.477 2.975-1.43 1.056-.95 1.984-1.97 2.784-3.06l.527-.888c-2.64.688-4.304 1.185-4.992 1.488-1.024.448-1.76 1.112-2.208 1.993z"/></g><g><path d="M171.575 58.434c.56-.672.84-1.24.84-1.705 0-.464-.192-.696-.576-.696-.753 0-1.608.688-2.568 2.064-.305.432-.6 1-.89 1.703-.287.706-.43 1.342-.43 1.91 0 .567.114 1.027.347 1.38.23.352.59.527 1.08.527s.938-.115 1.355-.348c.416-.233.812-.602 1.188-1.105s.66-.924.853-1.26c.19-.336.456-.84.792-1.513.11-.223.207-.315.288-.275.08.04.12.096.12.168s-.108.336-.324.792c-.217.456-.433.884-.648 1.284s-.524.85-.924 1.345c-.72.896-1.704 1.344-2.952 1.344-.896 0-1.54-.22-1.932-.66-.393-.44-.588-.948-.588-1.524 0-.704.17-1.473.516-2.305.344-.83.74-1.55 1.188-2.158.928-1.265 2-1.896 3.217-1.896.59 0 1.02.14 1.282.42.265.28.396.605.396.972 0 .545-.225 1.01-.672 1.393-.225.21-.412.313-.564.313s-.285-.058-.397-.17z"/><path d="M177.91 62.873c0 .448.16.672.48.672.752 0 1.815-1.408 3.19-4.224.113-.223.213-.31.302-.264.088.05.132.113.132.192 0 .08-.093.31-.276.685-.184.375-.368.736-.552 1.08-.185.344-.452.795-.804 1.355-.736 1.12-1.52 1.68-2.353 1.68-.545 0-.977-.224-1.297-.672-.144-.207-.216-.492-.216-.852s.08-.796.24-1.31c.16-.51.6-1.343 1.32-2.495.175-.288.264-.517.264-.685s-.136-.252-.407-.252c-.272 0-.792.36-1.56 1.08-1.152 1.056-2.272 2.64-3.36 4.752-.112.24-.408.36-.888.36-.433.03-.704.08-.816.144 3.04-6.32 5.24-10.73 6.6-13.226.303-.56.57-.95.804-1.176.23-.224.508-.336.828-.336.08 0 .247.02.504.06.256.04.447.053.575.036-.478.496-1.34 1.87-2.578 4.117-1.24 2.248-2.43 4.53-3.564 6.852.752-.943 1.428-1.68 2.028-2.208.6-.53 1.332-1.03 2.195-1.5.865-.473 1.497-.71 1.897-.71.096 0 .184.017.264.05-1.965 3.457-2.95 5.72-2.95 6.793z"/><path d="M182.902 60.258c-.224.543-.336 1.15-.336 1.823 0 .45.1.805.3 1.068.2.265.484.396.853.396 1.454 0 2.774-1.367 3.96-4.104.11-.256.247-.368.407-.336.063.016.096.056.096.12 0 .063-.18.483-.54 1.26s-.725 1.403-1.092 1.884c-.815 1.12-1.823 1.68-3.023 1.68-.64 0-1.185-.207-1.632-.623-.448-.416-.672-.984-.672-1.705 0-.72.172-1.483.516-2.29.343-.81.81-1.562 1.403-2.257.592-.697 1.27-1.205 2.04-1.525.368-.16.72-.24 1.056-.24s.647.097.936.29c.27.224.407.472.407.743 0 .96-.575 1.88-1.728 2.76-.353.272-.85.517-1.488.733-.64.215-1.13.325-1.465.325zm4.033-3.84c0-.32-.128-.48-.384-.48-.447 0-1.127.552-2.04 1.656-.543.672-1.023 1.424-1.44 2.256.273 0 .67-.097 1.19-.29.52-.19.97-.446 1.354-.767.88-.752 1.32-1.544 1.32-2.376z"/><path d="M195.238 56.08c-1.968 3.457-2.952 5.713-2.952 6.77 0 .416.15.623.456.623.815 0 1.912-1.383 3.288-4.15.096-.225.19-.313.288-.266.096.05.144.113.144.192 0 .08-.032.176-.096.287-.85 1.713-1.564 2.893-2.148 3.54s-1.168.972-1.752.972-1.028-.225-1.332-.673c-.16-.207-.24-.492-.24-.852s.08-.796.24-1.31c.16-.51.6-1.343 1.32-2.495.176-.287.264-.516.264-.684s-.136-.252-.407-.252c-.27 0-.79.36-1.56 1.08-1.152 1.056-2.265 2.64-3.336 4.752-.096.16-.204.26-.324.3s-.356.067-.708.084-.584.056-.695.12c.256-.512.76-1.56 1.512-3.145 1.343-2.8 2.223-4.4 2.64-4.8.19-.19.455-.288.79-.288.064 0 .23.024.493.072.264.048.46.056.588.023-.59.32-1.56 1.823-2.903 4.512.752-.928 1.437-1.668 2.053-2.22.615-.553 1.355-1.064 2.22-1.536s1.496-.71 1.896-.71c.094.003.182.02.262.05z"/></g><g><path d="M173.316 45.625c.07.096.107.348.107.755 0 .385-.036.637-.107.756-.072.12-.157.18-.252.18l-6.337-.035c-.192 0-.287-.083-.287-.25V22.62c0-.216.107-.324.323-.324h6.23c.118 0 .215.084.287.252.07.168.107.373.107.612 0 .216-.03.426-.09.63-.06.204-.15.306-.27.306h-4.177c-.144 0-.216.072-.216.216v9.072c0 .144.06.216.18.216h3.816c.072 0 .15.054.234.162.084.108.126.366.126.774s-.042.666-.126.774c-.085.108-.175.162-.27.162h-3.71c-.167 0-.25.096-.25.288v9.468c0 .168.083.252.25.252h4.142c.12 0 .218.048.29.143zM183.216 22.297c1.03 0 1.818.234 2.357.702.54.467.81 1.23.81 2.285v18.9c0 1.08-.27 1.872-.81 2.376-.54.505-1.326.757-2.357.757h-5.112c-.24 0-.36-.12-.36-.36V22.585c0-.192.096-.288.288-.288h5.184zm.935 2.988c0-.335-.095-.617-.287-.846-.192-.23-.48-.343-.863-.343h-2.845c-.144 0-.216.072-.216.216v20.844c0 .216.083.324.25.324H183c.384 0 .67-.13.863-.395.192-.264.288-.6.288-1.008V25.285zM205.39 22.117c.218 0 .44.03.667.09.23.06.33.138.307.234l-3.637 24.77c-.023.12-.138.197-.342.233s-.426.055-.666.055c-.265 0-.493-.02-.685-.055-.192-.036-.3-.114-.324-.234l-1.15-7.776c-.145-.96-.288-1.914-.433-2.862-.144-.948-.27-1.788-.378-2.52-.11-.732-.193-1.332-.253-1.8-.06-.468-.09-.714-.09-.738-.024-.095-.042-.13-.054-.108-.013.024-.02.06-.02.108 0 .024-.035.265-.107.72l-.27 1.782s-.234 1.566-.378 2.502c-.145.936-.288 1.896-.432 2.88-.337 2.304-.72 4.908-1.152 7.812 0 .12-.114.198-.342.234-.23.036-.45.055-.666.055-.192 0-.402-.02-.63-.056-.23-.036-.343-.114-.343-.234l-3.672-24.768c0-.072.08-.144.235-.216.155-.072.4-.108.738-.108.335 0 .594.006.773.018.18.013.282.078.307.198l2.52 16.992c.048.24.108.23.18-.036.433-3.12.816-5.916 1.152-8.388.144-1.056.288-2.088.432-3.096.145-1.008.27-1.914.378-2.718.108-.804.198-1.452.27-1.944.073-.492.108-.75.108-.774 0-.167.288-.252.864-.252s.876.084.9.252c0 .024.036.288.107.792.072.504.162 1.152.27 1.944.108.792.24 1.692.397 2.7.157 1.008.308 2.04.45 3.096.36 2.472.757 5.28 1.19 8.424.022.12.053.175.09.162.035-.012.064-.078.09-.198.143-.984.274-1.878.395-2.682.12-.804.257-1.71.413-2.718.156-1.008.307-2.04.45-3.096.36-2.472.78-5.28 1.26-8.424.024-.095.15-.162.38-.198.23-.037.462-.055.703-.055zM214.535 22.117c.84 0 1.41.132 1.71.396.3.265.474.576.52.936 0 .047.043.426.127 1.133.084.708.186 1.62.307 2.736.118 1.115.257 2.375.413 3.78.155 1.403.317 2.837.485 4.3.168 1.465.33 2.9.486 4.303.156 1.404.294 2.658.414 3.762l.288 2.664c.072.67.107 1.02.107 1.043.024.048-.042.113-.197.197-.156.084-.45.127-.882.127-.433 0-.715-.037-.847-.11-.132-.07-.21-.13-.233-.18 0-.022-.03-.286-.09-.79l-.198-1.657c-.072-.6-.14-1.152-.198-1.656-.06-.504-.09-.792-.09-.864-.024-.167-.108-.252-.252-.252h-3.6c-.193 0-.3.072-.324.216 0 .048-.036.324-.108.828-.072.504-.145 1.057-.216 1.656-.072.6-.14 1.158-.198 1.674-.06.517-.09.787-.09.81-.024.073-.103.145-.234.216-.132.072-.438.11-.918.11s-.78-.032-.9-.092-.168-.126-.144-.198c0-.023.036-.37.108-1.043.07-.672.174-1.56.306-2.665.132-1.104.275-2.358.432-3.762.156-1.404.318-2.844.486-4.32s.336-2.916.504-4.32c.168-1.404.312-2.664.433-3.78.12-1.116.222-2.016.306-2.7.083-.684.125-1.05.125-1.098.048-.408.216-.744.504-1.008.287-.262.84-.395 1.655-.395zm1.584 17.965c.19 0 .263-.12.215-.36 0-.023-.036-.317-.108-.882l-.27-2.178c-.108-.888-.23-1.872-.36-2.952s-.264-2.136-.396-3.168-.246-1.98-.34-2.844c-.098-.864-.17-1.524-.218-1.98-.023-.192-.048-.275-.07-.252-.025.024-.05.108-.073.252-.05.456-.127 1.116-.235 1.98-.107.864-.222 1.812-.342 2.844-.12 1.032-.252 2.088-.396 3.168-.145 1.08-.27 2.064-.378 2.952l-.272 2.196s-.108.876-.108.9c0 .216.072.324.217.324h3.132zM231.995 32.88c0 .385-.126.78-.378 1.19-.252.407-.618.61-1.098.61.478 0 .845.17 1.097.505.252.336.378.684.378 1.044V47.1c0 .265-.36.397-1.08.397-.336 0-.612-.037-.828-.11-.216-.07-.324-.166-.324-.286V36.375c0-.192-.03-.354-.09-.486-.06-.13-.222-.198-.485-.198h-3.312c-.168 0-.252.06-.252.18v11.232c0 .072-.103.15-.306.234-.204.084-.475.125-.81.125s-.607-.04-.81-.124c-.205-.084-.307-.174-.307-.27V22.548c0-.168.096-.253.288-.253h5.797c.84 0 1.47.276 1.89.828.42.552.63 1.152.63 1.8v7.956zm-3.24.937c.672 0 1.008-.336 1.008-1.008v-7.633c0-.264-.078-.504-.233-.72-.156-.216-.45-.324-.882-.324h-2.772c-.168 0-.252.072-.252.216v9.25c0 .145.072.217.216.217h2.915zM242.146 22.297c1.03 0 1.818.234 2.357.702.54.467.81 1.23.81 2.285v18.9c0 1.08-.27 1.872-.81 2.376-.54.505-1.326.757-2.357.757h-5.112c-.24 0-.36-.12-.36-.36V22.585c0-.192.096-.288.288-.288h5.184zm.936 2.988c0-.335-.096-.617-.288-.846-.192-.23-.48-.343-.863-.343h-2.844c-.144 0-.216.072-.216.216v20.844c0 .216.084.324.252.324h2.81c.383 0 .67-.13.862-.395.192-.264.288-.6.288-1.008V25.285z"/></g><g><path d="M120.49 36.288l4.825-.144c2.016 0 3.36.432 4.03 1.296.337.385.506.768.506 1.152 0 .385-.12.72-.36 1.008-.575.72-1.655 1.08-3.24 1.08-2.735 0-5.16-1.055-7.27-3.168-5.377.817-9.458 3.672-12.24 8.568-1.777 3.168-2.665 6.264-2.665 9.288 0 1.682.263 3.337.792 4.97 1.584 4.606 5.015 6.91 10.296 6.91 4.704 0 8.784-1.583 12.24-4.752 3.456-3.168 5.184-6.312 5.184-9.432 0-1.487-.637-2.724-1.908-3.708-1.273-.983-2.617-1.56-4.032-1.73-1.417-.166-2.617-.25-3.6-.25-.985 0-2.257.107-3.817.323-1.56.216-3.107.853-4.643 1.907-1.825 1.248-2.736 2.904-2.736 4.968s1.608 3.937 4.825 5.616c.48.29.684.66.612 1.116-.072.457-.277.59-.612.396-3.024-1.63-5.16-3.48-6.408-5.544-.864-1.343-1.296-2.472-1.296-3.384 0-.91.12-1.656.36-2.232.577-1.68 2.017-3.096 4.32-4.248 2.305-1.15 5.232-1.728 8.785-1.728h12.744c2.495 0 5.567-.84 9.215-2.52 1.775-.815 3.072-1.775 3.89-2.88.382-.576.575-1.188.575-1.836s-.145-1.212-.434-1.692c-.287-.48-.408-.815-.36-1.008.048-.19.18-.288.397-.288.215 0 .396.12.54.36.67 1.152 1.007 2.245 1.007 3.276 0 1.033-.312 1.98-.936 2.844-1.2 1.825-3.24 3.29-6.12 4.392-2.88 1.105-5.856 1.656-8.927 1.656h-.36c1.823 1.488 2.736 3.385 2.736 5.688 0 3.216-1.872 6.528-5.616 9.936-1.776 1.68-4.057 3.048-6.84 4.104-2.785 1.055-5.713 1.584-8.784 1.584-7.44 0-12.697-2.16-15.768-6.48-1.537-2.16-2.304-4.248-2.304-6.264s.313-3.89.937-5.616c1.68-4.56 5.064-8.087 10.152-10.584 2.926-1.44 6.214-2.35 9.863-2.736-1.344-1.872-2.004-4.223-1.98-7.056.024-2.832 1.26-5.496 3.708-7.992 2.45-2.496 5.268-4.308 8.46-5.436 3.192-1.127 6.3-1.692 9.324-1.692 2.496 0 4.62.504 6.372 1.512 1.752 1.008 2.63 2.617 2.63 4.824 0 1.393-.433 2.628-1.298 3.708-.863 1.08-1.836 1.62-2.916 1.62-1.08 0-1.943-.324-2.592-.972-.647-.648-.972-1.452-.972-2.412s.324-1.75.972-2.376c.648-.624 1.404-.936 2.27-.936.574 0 1.126.133 1.654.396.53.264.84.565.938.9.047-.288.07-.576.07-.864 0-1.056-.432-1.872-1.295-2.448-.913-.67-2.28-1.008-4.104-1.008-1.825 0-3.96.493-6.408 1.476-2.448.984-4.752 2.412-6.912 4.284-2.16 1.872-3.864 4.176-5.112 6.912-.672 1.537-1.007 2.905-1.007 4.104 0 1.202.216 2.282.648 3.242zm8.136 2.232c0-.864-1.776-1.296-5.328-1.296-.72 0-1.465.025-2.232.072 1.152 1.44 2.7 2.16 4.644 2.16s2.916-.312 2.916-.936z"/></g></svg>